{"title":"Cage_The_Elephant-Cold_War_Kids_LIVE_J_Kimmel_TTL","uid":6134949,"size":190412145,"categoryP":"video","categoryS":"hd___tv_shows","magnet":"?xt=urn:btih:8aa1884d2ce7e4d94d881887cf71367c5f0d9e4e&amp;dn=Cage_The_Elephant-Cold_War_Kids_LIVE_J_Kimmel_TTL&amp;tr=udp%3A%2F%2Ftracker.openbittorrent.com%3A80&amp;tr=udp%3A%2F%2Fopen.demonii.com%3A1337&amp;tr=udp%3A%2F%2Ftracker.coppersurfer.tk%3A6969&amp;tr=udp%3A%2F%2Fexodus.desync.com%3A6969","seeders":0,"leechers":1,"uploader":"thetorrentlord","files":6,"time":1296265419,"description":"Cage_The_Elephant_1-27-2011-AND-Cold_War_Kids_1-26-2011_LIVE_J_Kimmel_TTL. Includes the MP3 of each.                                          \t\t\t\t ******************************************************************************************************************\t\t\t\t\t\t\t\t\t\t\t\t\t\t\t\t\t\t\t\t\t\t\t\t\t\t\t\t\t                                  Please don't hit and run. Enjoy and plaese share.\t\t\t\t\t\t\t\t\t\t\t\t\t\t\t\t\t\t\t\t\t\t\t\t\t\t\t\t\t\t\t\t\t\t\t\t\t\t\t\t\t\t\t\t\t\t\t\t\t\t\t\t\t\t\t\t\t\t\t\t\t\t******************************************************************************************************                                                                    \t\t\t\t\t\t\t\t\t\t\t\t\t\t\t\t\t\t\t\t\t\t\t\tJ_Kimmel_Cage_The_Elephant_SONG_ONLY_720p_2011-01-27_TTL.avi\n                                                                               Format                           : AVI\nFormat/Info                      : Audio Video Interleave\nFile size                        : 97.6 MiB\nDuration                         : 3mn 27s\nOverall bit rate                 : 3 943 Kbps\nMovie name                       : J_Kimmel_Cage_The_Elephant_SONG_ONLY_720p_2011-01-27_TTL.mpg\nDirector                         : created.with.SUPER(C).v2009.bld.35\nWriting application              : SUPER(C)   \n\nVideo\nID                               : 0\nFormat                           : MPEG-4 Visual\nFormat profile                   : Simple@L3\nFormat settings, BVOP            : No\nFormat settings, QPel            : No\nFormat settings, GMC             : No warppoints\nFormat settings, Matrix          : Default (H.263)\nCodec ID                         : XVID\nCodec ID/Hint                    : XviD\nDuration                         : 3mn 27s\nBit rate                         : 3 816 Kbps\nWidth                            : 1 280 pixels\nHeight                           : 720 pixels\nDisplay aspect ratio             : 16:9\nFrame rate                       : 29.970 fps\nColor space                      : YUV\nChroma subsampling               : 4:2:0\nBit depth                        : 8 bits\nScan type                        : Progressive\nBits/(Pixel*Frame)               : 0.138\nStream size                      : 94.4 MiB (97%)\nWriting library                  : XviD 1.1.2 (UTC 2006-11-01)\n\nAudio\nID                               : 1\nFormat                           : MPEG Audio\nFormat version                   : Version 1\nFormat profile                   : Layer 3\nMode                             : Joint stereo\nCodec ID                         : 55\nCodec ID/Hint                    : MP3\nDuration                         : 3mn 27s\nBit rate mode                    : Constant\nBit rate                         : 112 Kbps\nChannel(s)                       : 2 channels\nSampling rate                    : 48.0 KHz\nStream size                      : 2.77 MiB (3%)\nAlignment                        : Aligned on interleaves\nInterleave, duration             : 24 ms (0.72 video frame)\nInterleave, preload duration     : 24 ms\n\n","torrent":{"xt":"urn:btih:8aa1884d2ce7e4d94d881887cf71367c5f0d9e4e","amp;dn":"Cage_The_Elephant-Cold_War_Kids_LIVE_J_Kimmel_TTL","amp;tr":["udp%3A%2F%2Ftracker.openbittorrent.com%3A80","udp%3A%2F%2Fopen.demonii.com%3A1337","udp%3A%2F%2Ftracker.coppersurfer.tk%3A6969","udp%3A%2F%2Fexodus.desync.com%3A6969"],"infoHash":"8aa1884d2ce7e4d94d881887cf71367c5f0d9e4e","infoHashBuffer":{"type":"Buffer","data":[138,161,136,77,44,231,228,217,77,136,24,135,207,113,54,124,95,13,158,78]},"announce":[],"urlList":[]}}